<svg xmlns="http://www.w3.org/2000/svg" viewBox="0 0 800 400" width="800" height="400">
  <style>
    @keyframes drawLine {
      to { stroke-dashoffset: 0; }
    }
    @keyframes fadeInPoint {
      from { opacity: 0; }
      to { opacity: 1; }
    }
    .data-line-0 {
      stroke-dasharray: 1171;
      stroke-dashoffset: 1171;
      animation: drawLine 2s ease-out forwards;
    }
    .data-point {
      opacity: 0;
      animation: fadeInPoint 0.5s ease-out forwards;
    }
    .chart-bg { fill: #fff; }
    .chart-text { fill: #24292e; }
    .chart-muted { fill: #6a737d; }
    .chart-grid { stroke: #eee; }
    .chart-axis { stroke: #6a737d; }
    @media (prefers-color-scheme: dark) {
      .chart-bg { fill: #0d1117; }
      .chart-text { fill: #e6edf3; }
      .chart-muted { fill: #8b949e; }
      .chart-grid { stroke: #21262d; }
      .chart-axis { stroke: #8b949e; }
    }
  </style>
  <rect width="800" height="400" class="chart-bg" />
  <text x="400" y="14" text-anchor="middle" class="chart-text" font-size="16" font-weight="bold" font-family="-apple-system, BlinkMacSystemFont, 'Segoe UI', Helvetica, Arial, sans-serif">nasty-project/nasty Star History</text>
  
  <g class="grid">
    <line x1="60" y1="350" x2="770" y2="350" class="chart-grid" stroke-opacity="0.3" />
    <text x="778" y="354" text-anchor="start" class="chart-muted" font-size="11" font-family="-apple-system, BlinkMacSystemFont, 'Segoe UI', Helvetica, Arial, sans-serif">0</text>
    <line x1="60" y1="282.5842696629213" x2="770" y2="282.5842696629213" class="chart-grid" stroke-opacity="0.3" />
    <text x="778" y="286.5842696629213" text-anchor="start" class="chart-muted" font-size="11" font-family="-apple-system, BlinkMacSystemFont, 'Segoe UI', Helvetica, Arial, sans-serif">100</text>
    <line x1="60" y1="215.1685393258427" x2="770" y2="215.1685393258427" class="chart-grid" stroke-opacity="0.3" />
    <text x="778" y="219.1685393258427" text-anchor="start" class="chart-muted" font-size="11" font-family="-apple-system, BlinkMacSystemFont, 'Segoe UI', Helvetica, Arial, sans-serif">200</text>
    <line x1="60" y1="147.75280898876406" x2="770" y2="147.75280898876406" class="chart-grid" stroke-opacity="0.3" />
    <text x="778" y="151.75280898876406" text-anchor="start" class="chart-muted" font-size="11" font-family="-apple-system, BlinkMacSystemFont, 'Segoe UI', Helvetica, Arial, sans-serif">300</text>
    <line x1="60" y1="80.33707865168537" x2="770" y2="80.33707865168537" class="chart-grid" stroke-opacity="0.3" />
    <text x="778" y="84.33707865168537" text-anchor="start" class="chart-muted" font-size="11" font-family="-apple-system, BlinkMacSystemFont, 'Segoe UI', Helvetica, Arial, sans-serif">400</text>
  </g>
  <g class="milestones">
    
  </g>
  <g class="x-axis">
    <text x="60" y="370" text-anchor="middle" class="chart-muted" font-size="11" font-family="-apple-system, BlinkMacSystemFont, 'Segoe UI', Helvetica, Arial, sans-serif">Apr 1</text>
    <text x="133.44827586206895" y="370" text-anchor="middle" class="chart-muted" font-size="11" font-family="-apple-system, BlinkMacSystemFont, 'Segoe UI', Helvetica, Arial, sans-serif">Apr 21</text>
    <text x="206.89655172413794" y="370" text-anchor="middle" class="chart-muted" font-size="11" font-family="-apple-system, BlinkMacSystemFont, 'Segoe UI', Helvetica, Arial, sans-serif">May 10</text>
    <text x="280.34482758620686" y="370" text-anchor="middle" class="chart-muted" font-size="11" font-family="-apple-system, BlinkMacSystemFont, 'Segoe UI', Helvetica, Arial, sans-serif">May 30</text>
    <text x="353.7931034482759" y="370" text-anchor="middle" class="chart-muted" font-size="11" font-family="-apple-system, BlinkMacSystemFont, 'Segoe UI', Helvetica, Arial, sans-serif">Jun 19</text>
    <text x="427.2413793103448" y="370" text-anchor="middle" class="chart-muted" font-size="11" font-family="-apple-system, BlinkMacSystemFont, 'Segoe UI', Helvetica, Arial, sans-serif">Jul 9</text>
    <text x="500.6896551724138" y="370" text-anchor="middle" class="chart-muted" font-size="11" font-family="-apple-system, BlinkMacSystemFont, 'Segoe UI', Helvetica, Arial, sans-serif">Jul 28</text>
    <text x="574.1379310344828" y="370" text-anchor="middle" class="chart-muted" font-size="11" font-family="-apple-system, BlinkMacSystemFont, 'Segoe UI', Helvetica, Arial, sans-serif">Aug 17</text>
    <text x="647.5862068965517" y="370" text-anchor="middle" class="chart-muted" font-size="11" font-family="-apple-system, BlinkMacSystemFont, 'Segoe UI', Helvetica, Arial, sans-serif">Sep 6</text>
    <text x="721.0344827586207" y="370" text-anchor="middle" class="chart-muted" font-size="11" font-family="-apple-system, BlinkMacSystemFont, 'Segoe UI', Helvetica, Arial, sans-serif">Sep 26</text>
    <text x="770" y="370" text-anchor="middle" class="chart-muted" font-size="11" font-family="-apple-system, BlinkMacSystemFont, 'Segoe UI', Helvetica, Arial, sans-serif">Oct 9</text>
  </g>
  <line x1="770" y1="50" x2="770" y2="350" class="chart-axis" stroke-width="1" />
  <line x1="60" y1="350" x2="770" y2="350" class="chart-axis" stroke-width="1" />
  <path d="M60,350 L60,349.3258426966292 C68.16091954022988,345.0561797752809 76.32183908045977,341.7977528089888 84.48275862068965,336.5168539325843 C92.64367816091954,331.2359550561798 100.80459770114942,322.4719101123596 108.9655172413793,317.64044943820227 C117.12643678160919,312.80898876404495 125.28735632183907,311.0112359550562 133.44827586206895,307.5280898876405 C141.60919540229884,304.0449438202248 149.77011494252872,299.2134831460674 157.9310344827586,296.7415730337079 C166.0919540229885,294.2696629213483 174.2528735632184,295.7303370786517 182.41379310344828,292.69662921348316 C190.57471264367817,289.6629213483146 198.73563218390805,286.9662921348314 206.89655172413794,278.5393258426966 C215.05747126436782,270.1123595505618 223.2183908045977,250.44943820224717 231.3793103448276,242.13483146067415 C239.54022988505747,233.82022471910113 247.70114942528735,235.16853932584272 255.86206896551724,228.65168539325845 C264.0229885057471,222.13483146067418 272.183908045977,209.2134831460674 280.34482758620686,203.03370786516854 C288.50574712643675,196.85393258426964 296.6666666666667,194.83146067415734 304.82758620689657,191.5730337078652 C312.98850574712645,188.31460674157307 321.14942528735634,186.17977528089887 329.3103448275862,183.48314606741573 C337.4712643678161,180.7865168539326 345.632183908046,177.64044943820227 353.7931034482759,175.3932584269663 C361.95402298850576,173.14606741573033 370.11494252873564,171.68539325842696 378.2758620689655,170 C386.4367816091954,168.31460674157304 394.5977011494253,166.74157303370788 402.7586206896552,165.2808988764045 C410.91954022988506,163.82022471910113 419.08045977011494,162.92134831460675 427.2413793103448,161.2359550561798 C435.4022988505747,159.55056179775283 443.5632183908046,157.52808988764045 451.7241379310345,155.1685393258427 C459.88505747126436,152.80898876404493 468.04597701149424,149.21348314606743 476.2068965517241,147.07865168539328 C484.367816091954,144.94382022471913 492.5287356321839,144.04494382022474 500.6896551724138,142.35955056179776 C508.85057471264366,140.67415730337078 517.0114942528736,138.31460674157302 525.1724137931035,136.96629213483143 C533.3333333333334,135.61797752808985 541.4942528735633,135.5056179775281 549.6551724137931,134.26966292134833 C557.816091954023,133.03370786516857 565.9770114942529,131.12359550561797 574.1379310344828,129.5505617977528 C582.2988505747127,127.97752808988764 590.4597701149426,127.19101123595506 598.6206896551724,124.83146067415731 C606.7816091954023,122.47191011235957 614.9425287356322,117.97752808988766 623.1034482758621,115.3932584269663 C631.264367816092,112.80898876404494 639.4252873563219,111.34831460674155 647.5862068965517,109.3258426966292 C655.7471264367816,107.30337078651684 663.9080459770115,105.9550561797753 672.0689655172414,103.25842696629215 C680.2298850574713,100.561797752809 688.3908045977012,96.40449438202246 696.551724137931,93.14606741573033 C704.7126436781609,89.8876404494382 712.8735632183908,85.7303370786517 721.0344827586207,83.70786516853934 C729.1954022988506,81.68539325842698 737.3563218390805,82.02247191011236 745.5172413793103,81.01123595505618 C753.6781609195402,80 761.8390804597701,78.76404494382024 770,77.64044943820227 L770,350 L60,350 Z" fill="#dfb317" fill-opacity="0.1" />
  <path d="M60,350 L60,349.3258426966292 C68.16091954022988,345.0561797752809 76.32183908045977,341.7977528089888 84.48275862068965,336.5168539325843 C92.64367816091954,331.2359550561798 100.80459770114942,322.4719101123596 108.9655172413793,317.64044943820227 C117.12643678160919,312.80898876404495 125.28735632183907,311.0112359550562 133.44827586206895,307.5280898876405 C141.60919540229884,304.0449438202248 149.77011494252872,299.2134831460674 157.9310344827586,296.7415730337079 C166.0919540229885,294.2696629213483 174.2528735632184,295.7303370786517 182.41379310344828,292.69662921348316 C190.57471264367817,289.6629213483146 198.73563218390805,286.9662921348314 206.89655172413794,278.5393258426966 C215.05747126436782,270.1123595505618 223.2183908045977,250.44943820224717 231.3793103448276,242.13483146067415 C239.54022988505747,233.82022471910113 247.70114942528735,235.16853932584272 255.86206896551724,228.65168539325845 C264.0229885057471,222.13483146067418 272.183908045977,209.2134831460674 280.34482758620686,203.03370786516854 C288.50574712643675,196.85393258426964 296.6666666666667,194.83146067415734 304.82758620689657,191.5730337078652 C312.98850574712645,188.31460674157307 321.14942528735634,186.17977528089887 329.3103448275862,183.48314606741573 C337.4712643678161,180.7865168539326 345.632183908046,177.64044943820227 353.7931034482759,175.3932584269663 C361.95402298850576,173.14606741573033 370.11494252873564,171.68539325842696 378.2758620689655,170 C386.4367816091954,168.31460674157304 394.5977011494253,166.74157303370788 402.7586206896552,165.2808988764045 C410.91954022988506,163.82022471910113 419.08045977011494,162.92134831460675 427.2413793103448,161.2359550561798 C435.4022988505747,159.55056179775283 443.5632183908046,157.52808988764045 451.7241379310345,155.1685393258427 C459.88505747126436,152.80898876404493 468.04597701149424,149.21348314606743 476.2068965517241,147.07865168539328 C484.367816091954,144.94382022471913 492.5287356321839,144.04494382022474 500.6896551724138,142.35955056179776 C508.85057471264366,140.67415730337078 517.0114942528736,138.31460674157302 525.1724137931035,136.96629213483143 C533.3333333333334,135.61797752808985 541.4942528735633,135.5056179775281 549.6551724137931,134.26966292134833 C557.816091954023,133.03370786516857 565.9770114942529,131.12359550561797 574.1379310344828,129.5505617977528 C582.2988505747127,127.97752808988764 590.4597701149426,127.19101123595506 598.6206896551724,124.83146067415731 C606.7816091954023,122.47191011235957 614.9425287356322,117.97752808988766 623.1034482758621,115.3932584269663 C631.264367816092,112.80898876404494 639.4252873563219,111.34831460674155 647.5862068965517,109.3258426966292 C655.7471264367816,107.30337078651684 663.9080459770115,105.9550561797753 672.0689655172414,103.25842696629215 C680.2298850574713,100.561797752809 688.3908045977012,96.40449438202246 696.551724137931,93.14606741573033 C704.7126436781609,89.8876404494382 712.8735632183908,85.7303370786517 721.0344827586207,83.70786516853934 C729.1954022988506,81.68539325842698 737.3563218390805,82.02247191011236 745.5172413793103,81.01123595505618 C753.6781609195402,80 761.8390804597701,78.76404494382024 770,77.64044943820227" fill="none" stroke="#dfb317" stroke-width="2.5" class="data-line-0" />
  <g class="points">
    
    <circle cx="60" cy="349.3258426966292" r="4" fill="#dfb317" class="data-point" style="animation-delay: 1.50s" />
    <circle cx="84.48275862068965" cy="336.5168539325843" r="4" fill="#dfb317" class="data-point" style="animation-delay: 1.55s" />
    <circle cx="108.9655172413793" cy="317.64044943820227" r="4" fill="#dfb317" class="data-point" style="animation-delay: 1.60s" />
    <circle cx="133.44827586206895" cy="307.5280898876405" r="4" fill="#dfb317" class="data-point" style="animation-delay: 1.65s" />
    <circle cx="157.9310344827586" cy="296.7415730337079" r="4" fill="#dfb317" class="data-point" style="animation-delay: 1.70s" />
    <circle cx="182.41379310344828" cy="292.69662921348316" r="4" fill="#dfb317" class="data-point" style="animation-delay: 1.75s" />
    <circle cx="206.89655172413794" cy="278.5393258426966" r="4" fill="#dfb317" class="data-point" style="animation-delay: 1.80s" />
    <circle cx="231.3793103448276" cy="242.13483146067415" r="4" fill="#dfb317" class="data-point" style="animation-delay: 1.85s" />
    <circle cx="255.86206896551724" cy="228.65168539325845" r="4" fill="#dfb317" class="data-point" style="animation-delay: 1.90s" />
    <circle cx="280.34482758620686" cy="203.03370786516854" r="4" fill="#dfb317" class="data-point" style="animation-delay: 1.95s" />
    <circle cx="304.82758620689657" cy="191.5730337078652" r="4" fill="#dfb317" class="data-point" style="animation-delay: 2.00s" />
    <circle cx="329.3103448275862" cy="183.48314606741573" r="4" fill="#dfb317" class="data-point" style="animation-delay: 2.05s" />
    <circle cx="353.7931034482759" cy="175.3932584269663" r="4" fill="#dfb317" class="data-point" style="animation-delay: 2.10s" />
    <circle cx="378.2758620689655" cy="170" r="4" fill="#dfb317" class="data-point" style="animation-delay: 2.15s" />
    <circle cx="402.7586206896552" cy="165.2808988764045" r="4" fill="#dfb317" class="data-point" style="animation-delay: 2.20s" />
    <circle cx="427.2413793103448" cy="161.2359550561798" r="4" fill="#dfb317" class="data-point" style="animation-delay: 2.25s" />
    <circle cx="451.7241379310345" cy="155.1685393258427" r="4" fill="#dfb317" class="data-point" style="animation-delay: 2.30s" />
    <circle cx="476.2068965517241" cy="147.07865168539328" r="4" fill="#dfb317" class="data-point" style="animation-delay: 2.35s" />
    <circle cx="500.6896551724138" cy="142.35955056179776" r="4" fill="#dfb317" class="data-point" style="animation-delay: 2.40s" />
    <circle cx="525.1724137931035" cy="136.96629213483143" r="4" fill="#dfb317" class="data-point" style="animation-delay: 2.45s" />
    <circle cx="549.6551724137931" cy="134.26966292134833" r="4" fill="#dfb317" class="data-point" style="animation-delay: 2.50s" />
    <circle cx="574.1379310344828" cy="129.5505617977528" r="4" fill="#dfb317" class="data-point" style="animation-delay: 2.55s" />
    <circle cx="598.6206896551724" cy="124.83146067415731" r="4" fill="#dfb317" class="data-point" style="animation-delay: 2.60s" />
    <circle cx="623.1034482758621" cy="115.3932584269663" r="4" fill="#dfb317" class="data-point" style="animation-delay: 2.65s" />
    <circle cx="647.5862068965517" cy="109.3258426966292" r="4" fill="#dfb317" class="data-point" style="animation-delay: 2.70s" />
    <circle cx="672.0689655172414" cy="103.25842696629215" r="4" fill="#dfb317" class="data-point" style="animation-delay: 2.75s" />
    <circle cx="696.551724137931" cy="93.14606741573033" r="4" fill="#dfb317" class="data-point" style="animation-delay: 2.80s" />
    <circle cx="721.0344827586207" cy="83.70786516853934" r="4" fill="#dfb317" class="data-point" style="animation-delay: 2.85s" />
    <circle cx="745.5172413793103" cy="81.01123595505618" r="4" fill="#dfb317" class="data-point" style="animation-delay: 2.90s" />
    <circle cx="770" cy="77.64044943820227" r="4" fill="#dfb317" class="data-point" style="animation-delay: 2.95s" />
  </g>
</svg>